<svg xmlns="http://www.w3.org/2000/svg" width="512" height="512" viewBox="0 0 512 512"><path fill="#D6E5E5" d="M409.8,292.8c-19.3-31.2-45.6-56.8-69.3-84.5c-24.9-29.1-45.7-62.6-76.6-86c-12.8-9.7-29.9-19.2-46.6-15.3c-23,5.4-37,27.5-47.8,46.8c-15,26.5-26.5,54.8-40.4,81.8c-14.4,27.9-28.3,56.3-39.2,85.8c-0.5,1.3-1.3,2.2-2.2,2.6c-6,11.9-12.2,26-8,38.5c3.5,10.4,13.5,16.6,23.9,19.9c14.1,4.5,29.1,5.8,43.9,6.1c33,0.5,65.2-5.6,98-7.1c28.9-1.3,58,0.1,86.9,1.9c22.3,1.4,47.5,3.3,68.3-6.4c14.6-6.8,26.1-20.9,25.8-37.6C426.1,322.6,418.4,306.7,409.8,292.8z M267.9,345.6c-9,21.9-51.7,24-48.9-5.2c0.1-1.6,0.8-2.7,1.7-3.4c0.4-4.4,1.3-8.8,3.4-12.6c4.4-7.9,12-11.7,21-11.1c8.3,0.5,17.5,4.1,21.9,11.5C270.3,330.8,270.4,339.3,267.9,345.6z M270.3,195.3c-0.3,13.9-1.3,27.8-1.4,41.7c-0.1,11.1,1.1,22.2-0.2,33.2c-1.1,10-4.6,23.1-13.9,28.9c-9,5.6-18.6,3-28.6,2.8c-1.7,0-3-0.7-4-1.7c-2.5-0.1-4.8-1.7-4.9-4.9c-1.7-42.6-9.7-85.3-22.2-126.1c-0.9-2.8,0.4-5.1,2.4-6.3c-1.4-2.3-1.5-5.5,1.3-7.6c7.5-5.8,18.3-6.1,27.4-6c5.2,0.1,10.3,0.4,15.5,0.5c4.6,0.1,9.1,0,13.6,1.3C274,156.7,270.5,180.2,270.3,195.3z"/><path fill="#FEBF10" d="M259.2 199.9c.2-8.8.9-18 0-26.8-.5-5.6-2.1-10.5-8.3-11.6-7.6-1.4-16.2-1.1-24-1.1-7.1 0-16-.4-22 4.1.2.4.4.8.5 1.2 12.4 40.6 20.6 83.1 22.6 125.5 7.5.7 17.8 3.1 22.6-3.1 5.7-7.4 7.3-16.6 7.5-25.8.1-9.3-.5-18.6-.3-28C258.2 222.8 258.9 211.4 259.2 199.9zM257.5 330.7c-2.1-4.6-9-6.3-13.5-6.5-12.7-.8-12.8 13.7-12.8 22.9 0 .5-.1.9-.2 1.4 5.2 6.7 22.5 1.8 26.2-6.2C258.9 338.7 259.2 334.2 257.5 330.7z"/><path fill="#FEBF10" d="M437.2,263.8c-15.9-22.7-34.6-43.2-52.4-64.5c-17.3-20.7-32.4-42.8-47.9-64.9c-15.2-21.8-31.1-43.6-51.4-61c-14.4-12.4-31.7-23.6-50.9-26.4c-30.2-4.4-53.8,16.6-70.4,39.4c-20.3,27.9-34,60.3-48,91.6c-6.2,13.8-12.2,27.8-19.4,41.2c-7,13-14.8,25.6-22.4,38.3c-9.6,16.2-19,32.5-27,49.5c-7.6,16.3-14.5,33.4-17.1,51.4c-2.1,14.5-1.1,30.2,8,42.3c12.7,16.9,35.2,22.1,54.9,25.4c0.2,0,0.4,0.1,0.7,0.1c5.1,0.2,10.2,0.3,15.2,0.4c65.5,1.2,131.2-3.2,196.7,0.8c28.2,1.7,56.5,5.4,84.7,1.5c25.1-3.5,51.4-13.4,66.8-34.6C487,353.4,462.5,299.9,437.2,263.8z M432,361.8c-22.4,42.1-78.7,33.2-118,31.4c-31.6-1.4-63.4-2.6-94.8,1.4c-12.4,1.6-24.9,2.9-37.5,3.8c-15.8,1.1-31.6,1.5-47.4,0.5c-14.3-1-29.3-3.1-42.4-9.2c-11.1-5.2-20.6-13.8-23.5-26.1c-4.2-18.1,5-35.9,12.9-51.6c0.2-0.3,0.3-0.6,0.5-0.8c10.1-26.4,22.5-52.1,35.5-77.2c13.5-26,24.6-53.1,38.6-78.8c11.5-21,25.1-44.7,47.8-55.2c16.3-7.5,34.4-5.2,50,2.9c17.8,9.3,32.7,23.5,46,38.3c13.7,15.2,26.1,31.3,38.7,47.4c21.4,27.1,46.5,51,67.2,78.8C424.1,292.1,448.9,330.2,432,361.8z"/><path d="M468.4,296c-22.5-50.6-65.4-88.1-97.5-132.3c-30.1-41.3-56.5-89.5-102.1-115.8c-14.3-8.3-30.8-13.5-47.5-12.4c-14.3,0.9-27.8,7.1-39.1,15.8c-26.3,20.2-43,51.7-57.2,81c-13.9,28.7-25,58.9-40.7,86.7c-17,30-36.1,58.8-50.1,90.4c-12.8,29-25.5,67.9-5.5,96.6c12.7,18.2,35,25.6,56,29.6c0.9,0.7,2,1.2,3.4,1.3c65.8,2.6,131.7-1.9,197.5,0.5c54.1,1.9,116.9,15.7,163.8-19.7c17.6-13.3,28.6-33.2,31.4-55C484.1,339.4,477.7,317.1,468.4,296z M457.4,394.2c-15.4,21.2-41.7,31.1-66.8,34.6c-28.2,3.9-56.5,0.3-84.7-1.5c-65.5-4-131.1,0.4-196.7-0.8c-5.1-0.1-10.2-0.2-15.2-0.4c-0.2-0.1-0.4-0.1-0.7-0.1c-19.7-3.3-42.2-8.6-54.9-25.4c-9.1-12.1-10.1-27.8-8-42.3c2.6-17.9,9.4-35.1,17.1-51.4c8-17,17.4-33.4,27-49.5c7.5-12.7,15.4-25.2,22.4-38.3c7.2-13.4,13.2-27.3,19.4-41.2c14-31.4,27.7-63.7,48-91.6c16.6-22.8,40.2-43.8,70.4-39.4c19.2,2.8,36.5,14,50.9,26.4c20.3,17.4,36.2,39.2,51.4,61c15.5,22.1,30.6,44.2,47.9,64.9c17.7,21.3,36.4,41.8,52.4,64.5C462.5,299.9,487,353.4,457.4,394.2z"/><path d="M405.7,267.3c-20.6-27.8-45.8-51.7-67.2-78.8c-12.6-16-25.1-32.2-38.7-47.4c-13.3-14.8-28.2-29-46-38.3c-15.6-8.1-33.7-10.4-50-2.9c-22.7,10.5-36.3,34.2-47.8,55.2c-14,25.7-25.1,52.8-38.6,78.8c-13,25.1-25.4,50.8-35.5,77.2c-0.2,0.3-0.4,0.5-0.5,0.8c-7.9,15.6-17.1,33.5-12.9,51.6c2.8,12.3,12.4,20.9,23.5,26.1c13.1,6.2,28.1,8.3,42.4,9.2c15.8,1.1,31.6,0.6,47.4-0.5c12.5-0.9,25-2.2,37.5-3.8c31.4-4,63.2-2.8,94.8-1.4c39.3,1.8,95.6,10.7,118-31.4C448.9,330.2,424.1,292.1,405.7,267.3z M400.5,377c-20.8,9.7-46,7.8-68.3,6.4c-28.9-1.8-57.9-3.2-86.9-1.9c-32.8,1.5-65,7.6-98,7.1c-14.7-0.2-29.8-1.6-43.9-6.1c-10.4-3.3-20.4-9.5-23.9-19.9c-4.2-12.6,2-26.7,8-38.5c0.9-0.5,1.7-1.3,2.2-2.6c10.9-29.5,24.8-57.9,39.2-85.8c13.9-27.1,25.4-55.3,40.4-81.8c10.9-19.2,24.8-41.4,47.8-46.8c16.7-3.9,33.8,5.6,46.6,15.3c30.9,23.4,51.7,56.9,76.6,86c23.8,27.7,50,53.3,69.3,84.5c8.7,14,16.4,29.9,16.6,46.6C426.6,356,415.1,370.1,400.5,377z"/><path d="M255.3 151.2c-4.4-1.3-9-1.2-13.6-1.3-5.2-.1-10.3-.5-15.5-.5-9.1-.1-19.9.2-27.4 6-2.7 2.1-2.7 5.3-1.3 7.6-1.9 1.2-3.2 3.5-2.4 6.3 12.5 40.8 20.5 83.5 22.2 126.1.1 3.2 2.5 4.8 4.9 4.9 1 1 2.3 1.6 4 1.7 10 .2 19.5 2.8 28.6-2.8 9.2-5.7 12.8-18.8 13.9-28.9 1.2-11 .1-22.2.2-33.2.1-13.9 1.2-27.8 1.4-41.7C270.5 180.2 274 156.7 255.3 151.2zM259.2 199.9c-.3 11.5-1 22.9-1.3 34.4-.2 9.3.4 18.6.3 28-.1 9.2-1.7 18.4-7.5 25.8-4.8 6.2-15.1 3.8-22.6 3.1-2-42.4-10.2-84.9-22.6-125.5-.1-.4-.3-.8-.5-1.2 6-4.5 14.9-4.1 22-4.1 7.8 0 16.3-.3 24 1.1 6.1 1.1 7.7 6.1 8.3 11.6C260.1 181.9 259.4 191.1 259.2 199.9zM266.9 324.8c-4.4-7.5-13.6-11-21.9-11.5-9-.5-16.6 3.2-21 11.1-2.1 3.8-3 8.2-3.4 12.6-.9.7-1.5 1.8-1.7 3.4-2.8 29.2 40 27.1 48.9 5.2C270.4 339.3 270.3 330.8 266.9 324.8zM257.4 342.1c-3.7 8-21 12.9-26.2 6.2.1-.4.2-.9.2-1.4 0-9.2 0-23.6 12.8-22.9 4.5.3 11.4 2 13.5 6.5C259.2 334.2 258.9 338.7 257.4 342.1z"/></svg>